<?xml version="1.0" standalone="no"?>
<!DOCTYPE svg PUBLIC "-//W3C//DTD SVG 20010904//EN"
 "http://www.w3.org/TR/2001/REC-SVG-20010904/DTD/svg10.dtd">
<svg version="1.0" xmlns="http://www.w3.org/2000/svg"
 width="700.000000pt" height="700.000000pt" viewBox="0 0 700.000000 700.000000"
 preserveAspectRatio="xMidYMid meet">
<metadata>
Created by potrace 1.14, written by Peter Selinger 2001-2017
</metadata>
<g transform="translate(0.000000,700.000000) scale(0.100000,-0.100000)"
fill="#000000" stroke="none">
<path d="M1373 5223 c3 -978 8 -1798 11 -1823 4 -25 11 -68 17 -96 5 -28 12
-64 15 -80 69 -395 315 -855 658 -1234 224 -247 558 -525 866 -719 47 -30 96
-62 110 -71 50 -33 297 -170 374 -206 l77 -37 82 41 c306 153 694 411 959 638
547 467 907 1013 1029 1558 52 233 50 165 55 2049 l4 1757 -2130 0 -2131 0 4
-1777z m1803 1420 c-23 -44 -77 -96 -131 -128 -27 -15 -65 -40 -83 -53 -18
-14 -54 -31 -80 -39 l-47 -13 45 5 c55 5 83 13 185 55 92 37 159 69 200 96
l28 18 -13 -24 c-7 -14 -27 -39 -45 -57 -34 -32 -219 -128 -315 -163 -41 -15
-46 -18 -20 -14 30 5 237 97 280 124 8 5 29 17 45 26 29 16 28 15 -8 -24 -22
-22 -57 -48 -78 -57 -62 -28 -38 -29 30 -1 33 13 61 21 61 16 0 -12 -73 -68
-105 -80 -15 -6 -43 -13 -63 -16 -41 -7 -84 -23 -62 -23 13 0 47 6 128 24 12
3 22 1 22 -5 0 -14 -59 -44 -100 -51 l-35 -6 41 -2 c23 0 61 6 84 14 24 8 45
13 47 11 10 -10 -71 -62 -114 -73 -35 -9 -39 -11 -15 -9 56 5 45 -11 -16 -22
-98 -20 -99 -21 -14 -18 45 1 82 1 82 -1 0 -1 -22 -14 -50 -28 -34 -17 -66
-25 -102 -25 -92 -1 -26 -22 92 -30 23 -1 -30 -27 -68 -33 -18 -3 -46 -2 -62
3 -17 5 -30 5 -30 1 0 -8 66 -44 105 -57 17 -5 15 -8 -15 -19 -35 -12 -64 -8
-135 20 -41 17 14 -32 63 -56 l47 -22 -32 -10 c-42 -13 -75 -3 -117 33 -29 26
-33 28 -29 10 7 -25 56 -68 89 -76 31 -8 31 -22 -1 -34 -43 -16 -124 30 -140
80 -8 24 -25 27 -25 4 0 -25 33 -75 47 -70 7 3 15 0 19 -6 5 -7 2 -8 -7 -4 -8
4 0 -4 16 -18 17 -14 34 -26 38 -26 5 0 5 -4 2 -10 -9 -15 -48 -12 -73 6 -13
9 -37 37 -53 62 l-31 47 5 -43 c3 -24 17 -61 31 -83 15 -21 23 -39 19 -39 -13
0 -77 41 -91 59 -12 15 -13 14 -8 -2 4 -11 2 -16 -5 -12 -6 4 -8 14 -5 22 3 8
3 33 -1 56 -6 37 -8 39 -13 17 -10 -41 6 -98 40 -147 32 -44 32 -45 9 -38 -73
23 -119 68 -119 118 0 17 -3 27 -7 23 -10 -10 -10 -12 -12 -87 -1 -56 -2 -60
-18 -48 -9 8 -29 32 -45 53 -33 47 -37 40 -5 -10 12 -19 47 -50 77 -69 30 -18
77 -56 103 -83 46 -46 49 -53 53 -109 2 -33 8 -72 14 -87 11 -31 14 -73 3 -62
-4 4 -19 46 -33 93 l-25 85 -84 34 c-45 18 -89 39 -97 45 -8 7 -17 10 -20 7
-3 -3 10 -15 28 -27 l33 -22 -65 6 c-36 3 -95 15 -132 26 -97 28 -127 62 -257
289 -66 115 -71 128 -71 183 0 59 15 94 61 139 33 33 69 85 69 100 0 23 -23
38 -76 52 -33 8 -49 18 -55 34 -8 20 -4 25 29 39 49 20 131 25 161 10 70 -35
79 -107 32 -235 -17 -46 -31 -87 -31 -92 0 -12 42 -39 69 -45 11 -3 30 -7 42
-10 51 -11 60 -17 53 -33 -28 -69 -29 -73 -14 -99 8 -15 22 -28 30 -31 9 -3 6
4 -7 17 -27 26 -29 48 -6 96 17 35 18 36 68 32 62 -5 86 4 154 55 29 22 65 44
80 48 22 7 23 8 5 9 -12 1 -36 -10 -55 -24 -91 -66 -107 -75 -137 -79 -35 -4
-44 9 -12 19 11 3 37 23 57 44 21 21 62 50 91 65 72 36 80 57 59 149 -22 93
-22 110 4 133 16 14 43 20 110 25 83 6 96 10 216 70 70 35 150 81 177 101 28
20 52 37 54 38 1 0 -4 -12 -12 -27z m1960 -2 c-24 -45 -75 -92 -161 -146 -117
-73 -129 -77 -207 -69 -66 6 -68 6 -99 -25 -29 -30 -31 -35 -24 -79 4 -26 9
-67 11 -90 1 -24 6 -47 10 -50 7 -7 0 79 -12 148 -4 27 -1 41 16 60 20 23 29
25 103 25 90 1 160 12 152 26 -5 7 77 64 174 124 18 11 -19 -44 -45 -66 -11
-9 -40 -24 -67 -34 -26 -10 -46 -20 -43 -22 8 -9 239 91 286 125 l24 17 -19
-33 c-28 -48 -74 -80 -205 -144 -103 -51 -161 -72 -255 -93 l-30 -7 44 -37
c50 -43 49 -65 -2 -50 -41 12 -47 11 -47 -2 0 -6 7 -8 16 -5 8 3 12 2 9 -4 -4
-6 1 -18 10 -27 13 -13 14 -18 3 -24 -10 -7 -9 -9 5 -9 22 0 22 18 0 43 -17
18 -17 19 7 17 63 -5 67 13 14 60 -20 17 -35 32 -33 33 2 2 36 10 74 20 40 9
135 49 220 92 l150 76 -40 -41 c-22 -23 -57 -49 -78 -57 -21 -9 -36 -17 -34
-20 3 -2 33 7 68 21 34 14 64 24 66 22 3 -2 -18 -22 -45 -43 -37 -30 -68 -44
-126 -57 -99 -24 -92 -33 9 -12 91 19 88 19 80 6 -9 -15 -66 -43 -105 -51 -34
-7 -34 -8 10 -7 25 1 52 5 60 8 8 4 28 10 45 14 l29 7 -19 -21 c-11 -12 -33
-29 -48 -37 -28 -14 -38 -16 -157 -28 -36 -4 -67 -9 -70 -11 -6 -6 172 6 181
12 4 2 10 0 14 -5 3 -5 -16 -13 -42 -17 -73 -10 -85 -13 -92 -20 -3 -3 30 -4
74 0 83 5 84 3 15 -33 -41 -22 -36 -21 -97 -22 -68 -1 -23 -17 57 -21 33 -2
60 -4 60 -5 0 -1 -15 -9 -32 -17 -46 -21 -85 -27 -115 -15 -14 5 -28 7 -31 4
-9 -9 31 -34 78 -49 l45 -14 -28 -11 c-38 -15 -71 -14 -112 3 -36 15 -46 8
-20 -14 8 -6 20 -8 26 -4 8 4 9 3 5 -5 -5 -7 8 -18 36 -30 l43 -19 -46 -7
c-29 -4 -55 -3 -67 4 -27 14 -35 14 -26 -1 4 -7 3 -8 -4 -4 -6 4 -9 12 -7 19
3 7 -7 20 -20 30 -14 10 -25 14 -25 8 0 -20 52 -71 85 -83 40 -14 44 -25 13
-33 -30 -7 -105 -2 -115 8 -4 5 1 5 12 1 15 -6 12 1 -12 29 -18 21 -33 42 -33
47 0 6 -4 10 -10 10 -17 0 -11 -36 12 -65 11 -15 39 -40 60 -55 42 -30 40 -40
-6 -34 -35 4 -62 28 -87 77 -11 20 -23 37 -28 37 -15 0 9 -83 34 -119 13 -19
22 -37 20 -39 -7 -7 -79 38 -89 55 -7 13 -10 13 -17 2 -6 -9 -7 -3 -4 16 3 17
1 44 -4 60 -9 29 -9 29 -11 5 -5 -58 3 -88 36 -138 33 -51 34 -53 12 -47 -67
20 -120 73 -120 120 0 17 -3 22 -8 15 -4 -7 -8 -43 -9 -81 -1 -61 1 -70 22
-80 31 -17 70 -50 107 -93 26 -29 33 -46 35 -89 2 -29 10 -77 19 -105 8 -29
11 -52 6 -52 -5 0 -21 39 -36 88 -14 48 -33 93 -42 100 -10 7 -40 20 -69 28
-28 8 -68 26 -88 40 -20 13 -33 19 -30 13 4 -6 21 -20 39 -31 l31 -20 -60 6
c-97 10 -194 35 -225 59 -33 26 -91 108 -166 237 -78 134 -79 135 -79 206 l0
71 63 73 c34 41 62 84 62 95 0 24 -27 40 -83 50 -27 5 -37 13 -42 33 -7 28 2
37 55 52 75 21 147 6 176 -38 25 -38 22 -107 -10 -195 -39 -106 -34 -120 51
-142 38 -10 71 -21 76 -25 4 -3 1 -23 -8 -43 -19 -46 -19 -58 0 -83 14 -18 14
-17 4 8 -10 22 -9 36 5 73 18 45 25 49 76 45 14 -1 21 2 17 6 -4 4 1 13 12 18
11 6 38 29 61 50 23 21 64 50 91 63 65 31 76 55 59 130 -23 105 -23 117 -2
143 17 21 31 25 107 31 82 6 96 11 229 77 77 38 159 84 181 101 22 17 41 31
43 31 1 0 -4 -13 -12 -29z m-2004 -98 c-11 -16 -28 -35 -38 -44 -21 -18 -125
-61 -131 -55 -5 5 82 66 94 66 5 0 24 13 43 30 44 37 57 38 32 3z m-364 -811
c26 -27 64 -80 85 -119 26 -46 59 -88 98 -122 33 -29 66 -66 74 -82 17 -31 14
-35 -16 -19 -23 13 -24 7 -2 -27 l17 -26 -29 6 c-17 3 -41 8 -55 12 l-25 7 23
-17 c60 -44 -30 -30 -106 17 -73 45 -150 117 -156 146 -7 31 -82 116 -133 151
-29 19 -33 28 -33 64 0 41 1 42 18 21 28 -34 76 -63 121 -73 46 -10 47 -13 -6
52 -35 43 -28 46 33 15 60 -30 103 -39 74 -15 -30 25 -53 57 -41 57 7 0 33
-22 59 -48z m1927 -17 l30 -6 -34 35 c-20 20 -29 36 -21 36 22 0 95 -83 140
-160 23 -40 73 -102 116 -143 78 -77 93 -104 49 -87 -29 11 -32 4 -9 -22 14
-15 15 -18 2 -23 -8 -3 -27 -1 -42 5 -40 15 -54 12 -28 -6 34 -23 17 -35 -28
-19 -84 30 -212 133 -236 190 -14 34 -83 111 -142 157 -15 13 -22 29 -22 54
l0 37 28 -28 c31 -32 96 -64 130 -65 22 0 21 3 -17 48 -23 27 -41 51 -41 55 0
3 21 -7 48 -22 26 -16 61 -32 77 -36z m-2200 -185 c-3 -5 1 -10 9 -10 9 0 16
-7 16 -15 0 -13 -19 -15 -130 -13 -71 2 -130 6 -130 11 0 4 26 7 58 8 94 1
155 8 166 19 13 13 19 13 11 0z m1978 -9 c4 -1 7 -7 7 -15 0 -11 -26 -13 -137
-11 -76 1 -149 -2 -162 -7 -13 -5 -26 -6 -29 -4 -11 12 51 25 126 27 44 1 98
5 119 9 21 3 45 5 53 4 8 -1 18 -3 23 -3z m-2237 -26 c-11 -8 -29 -15 -40 -14
-15 0 -11 4 14 14 45 17 49 17 26 0z m1910 -42 c-2 -9 -11 -18 -22 -19 -10 -2
-31 -6 -46 -10 -18 -4 -28 -2 -28 5 0 6 8 11 18 11 9 0 28 7 42 14 34 19 39
19 36 -1z m-1963 1 c3 -3 3 -13 0 -21 -4 -11 -8 -12 -14 -2 -6 10 -13 9 -32
-4 -18 -12 -27 -13 -36 -4 -9 9 -2 14 26 23 48 15 49 15 56 8z m520 -176 c4
-12 4 -24 2 -27 -3 -2 -5 1 -5 7 0 21 -20 13 -32 -13 -6 -14 -19 -25 -30 -25
-24 0 -23 3 15 43 39 42 43 43 50 15z m1961 6 c8 -22 8 -26 -4 -19 -6 4 -20
-5 -31 -19 -18 -23 -49 -36 -49 -20 0 7 62 71 71 73 4 0 10 -6 13 -15z m-1382
-369 c45 -10 164 -71 170 -87 8 -22 3 -1246 -5 -1254 -4 -4 -17 -2 -30 4 -49
25 -126 51 -173 58 -66 10 -237 9 -299 -2 -70 -12 -332 -11 -344 1 -14 14 -22
210 -46 1107 l-4 146 132 -3 c79 -2 170 3 227 11 52 8 118 17 145 20 28 4 51
7 53 9 5 4 142 -3 174 -10z m618 -5 c36 -6 76 -14 90 -17 48 -11 305 -13 343
-2 44 12 46 11 48 -22 2 -28 -10 -494 -16 -614 -3 -68 -16 -446 -19 -567 -1
-20 -5 -41 -11 -47 -29 -28 -164 -33 -365 -15 -173 16 -317 10 -390 -16 -36
-12 -71 -27 -78 -33 -7 -5 -15 -8 -17 -5 -3 2 -5 288 -5 634 -1 711 -11 634
87 680 89 43 189 50 333 24z m-1365 -146 c2 -65 7 -209 10 -319 8 -310 16
-559 20 -680 4 -116 -4 -143 -55 -190 -20 -18 -20 -18 -21 21 0 21 -2 75 -4
119 -2 44 -6 181 -9 305 -8 336 -18 688 -20 749 -1 51 1 57 34 87 19 18 36 31
38 30 1 -2 4 -56 7 -122z m1912 99 l30 -28 -3 -140 c-2 -133 -13 -682 -19
-920 -2 -60 -3 -136 -4 -169 l-1 -58 -40 48 c-22 27 -40 55 -41 64 0 20 3 208
6 290 1 36 5 180 9 320 5 140 9 293 11 340 2 47 5 129 6 183 1 53 5 97 9 97 4
0 21 -12 37 -27z m244 -170 c6 -6 9 -23 7 -39 -3 -27 -6 -29 -54 -32 l-51 -3
-1 46 -2 46 45 -3 c25 -3 50 -9 56 -15z m0 -170 c6 -6 9 -23 7 -39 -3 -27 -6
-29 -55 -32 l-53 -3 0 40 c0 22 5 41 13 44 21 7 77 1 88 -10z m2 -172 c5 -5 7
-21 5 -37 -3 -31 -31 -43 -80 -36 -25 4 -28 8 -28 41 0 21 2 40 6 43 8 8 87
-1 97 -11z m5 -194 c6 -51 -9 -58 -100 -48 -5 1 -8 19 -8 42 l0 40 53 -3 c49
-3 52 -5 55 -31z m-4 -153 c8 -22 8 -64 -1 -65 -90 -10 -103 -5 -103 35 0 42
5 46 56 46 29 0 44 -5 48 -16z m-3 -170 c6 -7 9 -25 7 -41 -3 -26 -6 -28 -54
-29 l-51 -1 -2 43 -1 44 45 -2 c25 0 50 -7 56 -14z m2 -173 c5 -5 7 -21 5 -37
-3 -27 -6 -29 -55 -32 l-53 -3 0 33 c0 19 5 39 11 45 12 12 78 8 92 -6z
m-1468 -45 c56 -7 62 -9 138 -36 66 -23 84 -39 50 -41 -64 -5 -896 -3 -899 2
-2 3 14 22 34 42 36 35 38 36 82 26 45 -11 189 -14 245 -5 17 3 57 8 90 12 33
3 61 7 62 8 4 3 158 -3 198 -8z m755 -11 c14 -3 72 -7 130 -9 95 -4 127 -2
225 18 26 5 34 0 59 -30 16 -19 25 -38 22 -42 -8 -7 -882 -11 -903 -4 -30 10
-7 24 97 61 47 16 77 18 200 15 80 -2 156 -6 170 -9z m160 -483 c0 -16 -59
-91 -82 -105 -13 -8 -65 -40 -116 -72 l-92 -58 -65 7 c-74 8 -114 -7 -133 -48
-11 -25 -6 -92 8 -101 4 -3 4 12 -1 33 -19 79 24 117 120 106 62 -7 202 23
166 36 -14 5 -2 16 51 49 38 23 79 49 92 58 32 23 27 9 -14 -36 -19 -22 -51
-45 -70 -51 -20 -7 -33 -14 -31 -17 7 -6 192 74 239 103 l39 25 -12 -23 c-14
-28 -87 -98 -102 -98 -5 0 -8 -2 -5 -5 3 -3 23 4 44 17 l39 22 -20 -24 c-28
-35 -64 -62 -105 -82 -46 -23 -1 -13 59 13 58 25 60 24 25 -12 -39 -41 -68
-55 -153 -75 -96 -21 -84 -30 15 -10 42 9 79 14 81 12 11 -10 -64 -49 -103
-54 -24 -2 -41 -9 -38 -13 3 -5 8 -8 12 -5 4 2 30 6 59 10 28 3 63 10 77 16
14 5 26 6 26 2 0 -14 -59 -52 -90 -58 -16 -4 -30 -11 -30 -16 0 -5 10 -6 21
-3 13 4 19 3 15 -3 -3 -5 -22 -12 -43 -16 -21 -4 -51 -9 -68 -12 -57 -11 -40
-16 38 -12 42 3 74 1 70 -3 -29 -26 -94 -49 -143 -50 -44 0 -50 -2 -32 -9 12
-6 45 -11 72 -13 61 -3 69 -11 30 -27 -37 -15 -74 -17 -115 -7 -29 8 -29 8
-12 -11 10 -11 39 -28 65 -37 39 -15 43 -20 27 -26 -32 -12 -83 -10 -120 5
-36 15 -46 8 -20 -14 8 -6 19 -9 25 -5 6 4 9 1 8 -6 -2 -7 12 -17 30 -22 29
-9 43 -25 25 -29 -24 -4 -112 -4 -110 1 2 7 -54 63 -59 59 -7 -8 24 -53 35
-50 7 1 10 -2 6 -8 -4 -6 11 -18 34 -28 22 -9 41 -20 41 -24 0 -3 -13 -10 -28
-16 -39 -14 -104 18 -128 63 -22 42 -34 45 -28 8 6 -31 44 -76 87 -101 37 -22
34 -31 -9 -27 -43 4 -69 26 -100 85 l-23 45 -1 -33 c0 -39 20 -92 43 -111 10
-7 17 -17 17 -22 0 -14 -58 11 -83 37 -18 18 -27 21 -30 12 -3 -7 -4 1 -1 17
2 17 0 44 -5 60 -8 27 -9 25 -10 -23 -1 -61 8 -83 58 -138 22 -24 7 -26 -41
-5 -54 23 -88 63 -88 102 0 16 -4 29 -10 29 -5 0 -9 -3 -9 -7 1 -5 1 -39 0
-77 l-1 -69 -26 24 c-30 28 -54 71 -65 114 -6 24 -7 26 -8 7 -1 -22 26 -81 51
-113 7 -8 40 -33 73 -54 33 -21 62 -41 65 -45 19 -28 72 -81 77 -77 5 6 -81
95 -130 134 -22 17 -27 30 -27 65 l1 43 16 -27 c19 -30 70 -61 126 -76 43 -12
42 -10 -11 56 -37 45 -40 65 -5 33 20 -19 104 -53 112 -45 3 2 -8 18 -24 34
-18 18 -23 30 -15 30 22 0 107 -97 142 -163 20 -36 64 -91 110 -137 43 -42 78
-81 78 -87 0 -6 -12 -8 -27 -5 -28 5 -28 5 -9 -16 16 -18 16 -23 4 -27 -8 -3
-27 -1 -42 5 -40 15 -54 12 -28 -6 34 -23 17 -35 -29 -19 -78 28 -229 145
-229 178 0 9 -4 17 -9 17 -13 0 -4 -92 14 -152 7 -26 10 -48 5 -48 -5 0 -22
41 -38 92 l-28 92 -75 31 c-42 16 -89 39 -105 49 l-29 19 19 -21 c10 -12 27
-24 37 -27 24 -8 25 -25 2 -21 -10 2 -38 7 -63 11 -123 18 -200 50 -242 100
-17 19 -132 207 -178 290 -29 52 -38 141 -17 181 9 16 38 56 66 89 28 32 51
67 51 77 0 24 -40 49 -89 55 -23 3 -38 10 -35 15 3 5 0 15 -6 23 -29 34 136
67 194 40 67 -32 79 -122 32 -232 -43 -103 -33 -125 65 -144 32 -6 62 -15 65
-20 2 -5 -2 -22 -11 -39 -30 -57 8 -127 53 -101 15 9 14 10 -7 8 -18 -1 -29 6
-40 26 -15 25 -15 30 4 65 20 36 21 37 80 38 66 1 100 16 155 64 19 16 53 35
75 41 61 16 85 44 85 97 0 55 -10 51 -12 -4 -1 -41 -14 -68 -29 -58 -5 3 -9 1
-9 -5 0 -6 -18 -15 -39 -21 -22 -6 -59 -26 -82 -46 -53 -44 -66 -51 -109 -57
l-35 -6 25 21 c14 11 43 36 65 55 22 19 61 46 87 59 70 36 80 60 57 148 -23
89 -23 98 0 127 16 20 31 24 110 30 85 6 99 10 209 64 114 57 204 111 210 127
5 11 22 10 22 0z m-1243 -298 c-3 -3 -12 -4 -19 -1 -8 3 -5 6 6 6 11 1 17 -2
13 -5z m848 -524 c3 -5 2 -10 -4 -10 -5 0 -13 5 -16 10 -3 6 -2 10 4 10 5 0
13 -4 16 -10z m-265 -325 c0 -13 -18 -15 -137 -13 -76 2 -151 -1 -168 -5 -23
-7 -27 -6 -18 4 10 10 76 17 271 27 42 2 52 0 52 -13z m-332 -52 c-2 -9 -12
-18 -23 -19 -11 -2 -32 -6 -47 -10 -18 -4 -28 -2 -28 5 0 6 6 11 13 12 24 1
45 7 64 18 24 14 25 14 21 -6z m517 -174 c4 -11 4 -23 1 -26 -3 -4 -6 2 -6 12
0 16 -2 15 -20 -5 -11 -13 -20 -27 -20 -32 0 -4 -9 -8 -20 -8 -26 0 -26 2 13
43 39 41 44 43 52 16z"/>
<path d="M2723 6410 c-39 -23 -47 -51 -34 -105 l10 -40 -5 47 c-3 26 -1 56 5
66 14 26 59 43 98 38 18 -2 30 1 27 5 -9 16 -68 9 -101 -11z"/>
<path d="M2095 6400 c-4 -7 -3 -16 3 -22 14 -14 45 -2 40 15 -6 16 -34 21 -43
7z m25 -10 c0 -5 -2 -10 -4 -10 -3 0 -8 5 -11 10 -3 6 -1 10 4 10 6 0 11 -4
11 -10z"/>
<path d="M2806 6311 c-16 -6 -14 -11 24 -43 48 -42 47 -61 -3 -47 -41 12 -47
11 -47 -2 0 -6 7 -9 14 -6 10 4 13 1 9 -9 -3 -7 0 -14 5 -14 6 0 14 -9 17 -21
4 -11 9 -18 12 -15 3 3 -2 17 -11 32 -17 25 -17 26 6 24 61 -5 64 13 12 59
-25 21 -32 32 -23 35 41 13 43 14 24 15 -11 0 -28 -4 -39 -8z"/>
<path d="M2696 6222 c3 -46 -3 -59 -27 -65 -10 -3 -19 -10 -19 -16 0 -17 37 5
50 29 12 22 13 77 2 84 -4 2 -7 -12 -6 -32z"/>
<path d="M2945 6190 l-50 -7 58 0 c32 0 60 4 63 9 6 9 5 9 -71 -2z"/>
<path d="M2760 6166 c0 -3 5 -17 10 -31 14 -37 3 -49 -26 -30 -24 15 -24 15
-24 -19 0 -19 -3 -42 -7 -52 -4 -12 -3 -15 5 -10 7 4 12 23 12 42 0 30 2 33
18 25 30 -16 46 2 34 38 -11 30 -10 31 16 26 23 -4 24 -4 7 4 -22 10 -45 14
-45 7z"/>
<path d="M2646 6021 c-8 -53 -24 -61 -52 -26 l-22 27 -27 -46 c-15 -25 -31
-46 -35 -46 -5 0 -18 12 -30 28 l-22 27 21 -35 c27 -46 37 -48 57 -8 30 60 34
62 65 32 l29 -27 15 36 c8 20 15 41 15 47 0 7 9 9 23 5 22 -7 22 -7 2 9 -29
22 -32 20 -39 -23z"/>
<path d="M2380 5905 c-19 -14 -30 -25 -24 -25 5 0 20 7 33 16 22 16 23 16 17
-4 -12 -36 -13 -56 -6 -82 5 -19 7 -14 8 22 0 25 5 55 11 66 21 40 11 42 -39
7z"/>
<path d="M4068 6412 c-10 -2 -18 -10 -18 -18 0 -19 28 -30 42 -16 14 14 -3 39
-24 34z m22 -22 c0 -5 -4 -10 -9 -10 -6 0 -13 5 -16 10 -3 6 1 10 9 10 9 0 16
-4 16 -10z"/>
<path d="M4627 6163 c-9 -2 -15 -8 -12 -13 3 -5 -8 -11 -24 -15 -17 -3 -60
-29 -97 -56 -37 -27 -75 -49 -85 -49 -10 0 -20 -4 -24 -9 -13 -22 61 11 110
49 29 22 73 47 98 56 25 8 51 22 58 30 12 14 8 15 -24 7z"/>
<path d="M4725 6153 c21 -52 13 -67 -25 -43 -12 8 -16 1 -20 -35 l-5 -45 -27
14 c-31 16 -33 15 -43 -31 -3 -18 -11 -35 -16 -39 -11 -6 -39 19 -39 35 0 27
-28 7 -48 -34 -12 -25 -25 -45 -29 -45 -5 0 -17 13 -28 29 -11 17 -21 28 -23
27 -2 -2 8 -20 22 -40 27 -40 30 -39 67 23 l20 33 23 -21 c32 -30 44 -26 57
19 10 34 15 39 33 34 38 -11 41 -9 44 27 3 33 5 35 32 31 24 -3 30 -1 30 14 0
11 -5 26 -10 34 -7 11 -5 17 8 22 13 5 12 7 -7 7 -18 1 -22 -3 -16 -16z"/>
<path d="M4350 5910 c-22 -19 -35 -24 -52 -21 -5 0 -8 -3 -8 -9 0 -15 11 -12
48 10 l32 20 -5 -28 c-5 -26 -5 -26 5 -4 5 13 8 28 5 32 -3 5 1 11 7 13 8 3 8
6 2 6 -6 1 -21 -8 -34 -19z"/>
<path d="M4358 5844 c-17 -16 40 -132 75 -153 19 -12 18 -9 -4 15 -33 36 -59
85 -61 119 -3 28 -2 27 -10 19z"/>
<path d="M3198 4400 c-5 -31 6 -41 16 -15 7 18 55 20 57 3 9 -80 4 -216 -8
-236 -14 -22 -13 -23 25 -21 38 3 39 4 27 23 -8 14 -12 57 -11 131 l1 110 34
-2 c19 -1 38 -8 42 -15 6 -9 9 -4 9 13 l0 26 -73 -5 c-44 -3 -82 0 -94 7 -19
9 -21 7 -25 -19z"/>
<path d="M2656 4400 c14 -30 11 -224 -3 -248 -14 -22 -13 -23 26 -20 37 2 39
3 26 18 -9 10 -15 37 -15 68 0 48 2 52 23 52 13 0 28 -5 35 -12 9 -9 12 -6 12
13 0 23 -3 25 -35 21 l-35 -4 0 50 c0 38 4 54 17 61 18 10 51 -2 65 -23 5 -7
8 -6 8 4 0 32 -16 40 -73 38 -47 -2 -56 -5 -51 -18z"/>
<path d="M2845 4412 c-3 -3 0 -11 7 -19 7 -9 11 -54 11 -119 0 -82 -3 -108
-16 -122 -16 -17 -14 -18 23 -20 36 -3 56 11 29 20 -16 5 -18 205 -2 236 7 13
13 25 13 26 0 5 -61 2 -65 -2z"/>
<path d="M3067 4413 c-2 -4 -19 -61 -37 -125 -18 -65 -38 -122 -46 -129 -23
-19 -16 -29 21 -29 33 0 35 2 25 20 -6 11 -8 36 -4 55 6 32 9 35 40 35 30 0
34 -3 40 -37 4 -22 2 -43 -5 -55 -10 -16 -8 -18 29 -18 37 0 55 13 29 22 -12
4 -36 87 -72 245 -4 18 -14 26 -20 16z m17 -94 c11 -57 8 -67 -19 -61 -29 5
-28 4 -14 55 12 45 24 47 33 6z"/>
<path d="M3593 4408 c-2 -5 1 -8 6 -8 16 0 15 -232 -1 -248 -9 -9 -8 -12 8
-13 130 -7 125 -7 135 18 15 39 10 48 -11 21 -14 -18 -28 -25 -52 -24 l-33 1
-3 114 c-2 91 0 117 13 131 14 16 13 17 -21 16 -20 -1 -38 -4 -41 -8z"/>
<path d="M3805 4410 c-3 -5 -1 -10 5 -12 5 -2 12 -51 14 -111 4 -119 13 -139
68 -152 40 -10 88 39 89 92 3 108 9 165 18 177 9 10 5 12 -17 10 -37 -3 -36
-2 -25 -16 5 -7 9 -57 9 -110 -1 -74 -5 -101 -17 -113 -41 -42 -98 -12 -100
53 -3 78 -2 138 2 162 3 20 0 25 -19 26 -12 1 -25 -2 -27 -6z"/>
<path d="M4078 4397 c11 -12 32 -45 47 -74 l26 -52 -20 -38 c-10 -21 -31 -49
-45 -62 -33 -31 -33 -37 2 -35 44 2 47 3 35 15 -9 9 -7 21 7 50 11 21 24 40
28 43 15 9 41 -69 30 -88 -6 -11 -5 -16 4 -17 7 -1 25 -2 41 -3 30 -3 35 5 13
23 -14 12 -66 114 -66 130 0 10 62 105 72 109 20 9 5 22 -22 20 -23 -2 -29 -6
-25 -19 6 -17 -23 -89 -35 -89 -12 0 -41 72 -35 89 4 13 -3 16 -37 18 l-41 3
21 -23z"/>
<path d="M4045 2884 c-33 -19 -86 -44 -118 -55 -31 -12 -56 -24 -53 -26 6 -7
136 47 178 74 21 12 42 23 47 23 5 0 13 5 16 10 10 17 -7 10 -70 -26z"/>
<path d="M3062 2877 c-14 -17 2 -42 22 -34 20 8 20 21 2 36 -10 8 -16 8 -24
-2z m28 -11 c0 -11 -19 -15 -25 -6 -3 5 1 10 9 10 9 0 16 -2 16 -4z"/>
<path d="M3802 2790 c-18 -4 -36 -11 -40 -14 -6 -7 54 -66 67 -66 3 1 -9 14
-28 30 l-33 28 48 15 c52 16 42 20 -14 7z"/>
<path d="M3740 2695 c0 -3 12 -17 27 -31 32 -29 25 -40 -16 -26 -34 12 -36 7
-21 -33 14 -37 4 -48 -26 -29 -23 16 -24 16 -24 -10 0 -16 4 -25 10 -21 6 4 8
11 5 16 -8 12 8 12 21 -1 5 -5 15 -6 23 -1 11 7 11 15 3 40 l-11 32 34 -7 c40
-7 46 7 18 39 -17 18 -17 19 7 17 39 -3 50 -1 50 12 0 9 -3 9 -11 1 -7 -7 -21
-8 -42 -2 -37 10 -47 11 -47 4z"/>
<path d="M3900 2659 c-32 -5 -22 -6 35 -3 43 3 81 7 84 9 6 7 -67 3 -119 -6z"/>
<path d="M3616 2523 c-3 -8 -6 -22 -6 -32 0 -9 -6 -25 -13 -35 -12 -17 -14
-16 -37 7 -18 19 -28 23 -37 15 -7 -6 -13 -14 -13 -19 0 -5 -8 -22 -18 -39
l-19 -30 -26 37 c-15 21 -27 32 -27 26 0 -7 5 -15 11 -18 5 -4 14 -18 19 -31
13 -34 25 -30 54 21 24 40 29 43 46 32 11 -6 20 -19 20 -27 1 -23 50 37 50 62
0 15 4 18 18 13 45 -19 52 -18 51 6 -1 17 -3 19 -6 7 -6 -23 -18 -23 -42 1
-17 17 -20 17 -25 4z"/>
<path d="M3358 2386 c-10 -7 -18 -17 -18 -21 0 -4 7 -2 15 5 13 11 14 8 10
-21 -6 -33 -5 -33 9 6 9 22 16 41 16 43 0 6 -17 0 -32 -12z"/>
<path d="M1688 1839 c-15 -6 -46 -39 -76 -82 -53 -77 -69 -96 -137 -168 -96
-101 -110 -140 -76 -214 42 -94 272 -252 546 -375 59 -27 162 -65 450 -165
276 -96 308 -108 389 -144 59 -27 67 -33 55 -47 -31 -38 -45 -37 -177 14 -126
49 -212 77 -327 106 -98 24 -115 27 -220 31 -84 3 -108 0 -147 -17 -43 -18
-50 -27 -100 -121 -29 -56 -73 -131 -97 -166 -59 -87 -65 -113 -38 -148 42
-55 269 -257 317 -283 19 -11 89 -14 285 -16 143 -1 274 -4 290 -6 50 -6 96
12 160 60 33 25 62 49 65 52 37 40 44 41 111 21 83 -26 263 -69 314 -76 127
-16 181 -20 280 -20 168 1 286 19 409 65 l58 22 47 -44 c80 -77 91 -85 136
-98 50 -14 108 -9 210 16 53 13 119 18 267 19 288 3 270 -2 384 113 106 107
136 146 126 171 -3 9 -27 41 -52 72 -65 79 -85 113 -117 208 -39 116 -64 135
-184 137 -126 2 -348 -44 -565 -118 -91 -31 -91 -31 -117 -12 -15 10 -25 23
-24 27 1 5 61 35 132 67 117 52 203 84 530 195 236 81 336 120 456 180 160 79
285 169 314 225 18 34 5 59 -79 157 -36 42 -75 103 -102 160 -49 105 -71 124
-148 131 -88 7 -144 -37 -132 -105 3 -14 28 -56 56 -95 38 -52 48 -73 40 -83
-9 -11 -248 -133 -360 -183 -122 -55 -345 -138 -530 -197 -172 -55 -372 -115
-383 -115 -6 0 -26 -10 -45 -22 -24 -17 -48 -51 -83 -122 -28 -54 -70 -128
-94 -165 -63 -96 -63 -100 -11 -164 l45 -56 -72 -16 c-91 -21 -273 -26 -344
-10 -29 7 -56 13 -59 13 -17 1 -9 14 41 60 36 34 55 60 55 75 0 13 -21 50 -46
83 -65 83 -89 128 -114 212 -14 48 -28 77 -43 86 -35 23 -155 68 -382 144
-206 70 -341 117 -460 163 -74 28 -245 116 -322 165 -67 42 -200 140 -207 153
-3 5 10 43 29 84 45 98 46 131 3 157 -35 21 -86 25 -130 9z m123 -19 c12 -7
19 -21 19 -41 0 -35 -54 -159 -69 -159 -6 0 -18 11 -27 25 -21 32 -8 61 36 87
49 28 33 76 -25 73 -40 -1 -59 -21 -61 -64 -1 -23 2 -44 7 -47 5 -3 9 -13 9
-22 0 -38 138 -159 286 -250 170 -106 322 -171 669 -287 258 -87 464 -164 492
-184 14 -11 27 -39 39 -85 12 -50 32 -92 72 -150 30 -45 58 -83 62 -86 4 -3
12 -15 18 -27 10 -18 8 -26 -14 -52 -14 -17 -43 -44 -64 -61 l-39 -31 -201 67
c-110 38 -200 71 -200 75 0 3 28 28 63 55 34 27 67 53 73 59 7 5 29 24 50 42
91 75 123 113 119 141 -2 6 -3 15 -4 20 -4 25 -220 118 -258 110 -8 -2 25 -16
74 -32 98 -33 166 -72 171 -99 4 -21 -80 -108 -174 -181 l-62 -47 -93 39
c-104 44 -197 78 -399 148 -382 132 -576 216 -740 322 -162 105 -224 168 -235
239 -8 53 1 70 90 169 39 42 80 91 93 108 12 17 37 51 55 76 18 25 44 51 57
57 26 14 78 10 111 -7z m-31 -47 c0 -15 -33 -42 -72 -61 -13 -6 -9 53 4 66 19
19 68 15 68 -5z m3522 -37 c26 -17 30 -24 73 -121 26 -61 75 -130 139 -199 36
-38 39 -46 37 -80 -1 -16 -48 -67 -93 -101 -77 -59 -355 -205 -390 -205 -8 0
-18 -4 -23 -9 -6 -5 -129 -50 -275 -99 -387 -133 -427 -148 -578 -218 -40 -19
-78 -34 -85 -34 -22 0 -173 128 -192 163 -25 46 -15 79 31 100 20 10 34 20 31
23 -3 3 -23 -4 -45 -15 -101 -52 -61 -127 150 -279 43 -31 74 -59 70 -63 -4
-4 -94 -35 -200 -69 l-193 -63 -44 47 c-52 57 -52 75 3 156 45 69 122 210 122
225 0 31 60 66 185 105 72 22 198 63 280 90 83 27 157 52 165 54 213 64 698
286 776 354 48 42 84 101 84 136 -1 54 -59 100 -120 94 -45 -4 -60 -29 -40
-66 13 -22 23 -27 54 -27 31 -1 41 -6 53 -28 17 -34 11 -56 -24 -81 -26 -19
-26 -19 -45 5 -103 131 -113 189 -36 218 33 13 102 5 130 -13z m-23 -44 c19
-14 27 -30 29 -58 l2 -39 -21 28 c-16 21 -29 27 -59 27 -44 0 -55 11 -46 46 6
22 11 24 38 20 17 -3 43 -13 57 -24z m-3039 -923 c30 -6 66 -12 80 -15 64 -13
231 -67 361 -119 236 -93 474 -174 609 -206 84 -20 227 -27 286 -15 16 3 45 8
64 11 76 12 123 27 525 161 435 145 667 188 766 140 38 -18 51 -39 89 -151 21
-62 67 -137 118 -191 55 -57 53 -61 -64 -183 -84 -87 -115 -113 -146 -122 -23
-6 -101 -9 -189 -6 -158 4 -257 -4 -352 -29 -79 -20 -167 -20 -207 1 -37 19
-130 108 -130 124 0 6 5 11 12 11 6 0 91 29 189 65 97 36 182 65 188 65 7 0
53 -40 103 -90 68 -67 103 -93 137 -104 58 -19 116 -26 133 -15 8 6 -3 9 -29
9 -63 0 -142 34 -191 81 -42 41 -42 42 -21 57 11 8 59 40 105 71 118 79 185
137 232 202 89 121 58 192 -91 206 -34 3 -58 2 -54 -3 4 -4 20 -9 35 -10 91
-7 129 -23 138 -59 14 -56 -34 -137 -132 -222 -75 -64 -80 -67 -141 -64 -80 3
-197 -29 -495 -137 -370 -134 -381 -137 -608 -137 -213 0 -268 6 -434 46 -129
32 -232 64 -496 155 -91 31 -217 67 -280 81 -100 21 -121 29 -170 65 -129 98
-231 216 -216 253 8 21 47 43 90 49 47 8 60 16 24 16 -72 0 -125 -28 -131 -70
-8 -54 69 -140 265 -292 71 -55 128 -104 126 -108 -5 -15 -191 -162 -216 -171
-24 -9 -60 3 -74 25 -4 6 -10 8 -13 4 -11 -11 38 -48 63 -48 32 0 55 14 137
80 39 31 101 81 139 110 l69 53 76 -26 c42 -14 139 -47 215 -73 l139 -48 -54
-48 c-103 -92 -116 -96 -259 -90 -140 6 -216 6 -371 1 -91 -3 -110 -1 -136 16
-47 31 -255 215 -291 259 -38 46 -37 57 17 136 21 30 57 91 81 135 23 44 51
95 62 112 18 31 58 56 103 66 29 6 150 -2 215 -14z m105 -405 c21 -3 46 -9 57
-13 17 -6 16 -9 -11 -28 l-29 -22 -40 31 c-23 17 -39 35 -36 40 3 5 9 6 14 3
4 -2 25 -7 45 -11z m2314 -36 c-19 -16 -54 -40 -78 -55 l-44 -26 -34 37 c-30
31 -32 37 -17 43 32 12 128 29 168 29 l39 0 -34 -28z"/>
<path d="M1823 1382 c1 -23 -70 -148 -94 -165 -17 -13 -16 -15 17 -30 35 -17
35 -17 29 2 -5 18 18 81 31 81 7 0 87 -41 101 -52 19 -15 -21 -90 -44 -81 -27
11 -5 -15 27 -32 25 -13 29 -13 24 -1 -6 16 71 172 89 180 8 3 6 10 -7 20 -24
19 -38 20 -35 4 3 -19 -22 -78 -32 -78 -19 0 -109 50 -109 61 0 21 31 68 47
71 14 3 11 8 -14 21 -30 16 -32 16 -30 -1z"/>
<path d="M2079 1164 c-40 -41 -82 -77 -91 -80 -24 -7 -15 -19 22 -33 27 -9 29
-8 21 7 -6 12 -4 24 9 40 21 25 29 27 65 10 34 -15 36 -65 3 -77 -22 -8 -21
-9 16 -25 51 -21 60 -20 43 5 -8 11 -13 34 -11 52 9 84 11 167 5 171 -4 3 -41
-29 -82 -70z m57 -6 c-3 -24 -5 -44 -5 -45 -1 -1 -15 3 -32 9 l-31 10 33 34
c18 19 35 34 37 34 2 0 1 -19 -2 -42z"/>
<path d="M2305 1159 c8 -25 -32 -146 -57 -171 -23 -23 -26 -21 38 -41 27 -9
57 -19 66 -22 11 -4 20 1 28 15 11 20 10 21 -10 10 -17 -9 -29 -9 -51 0 -32
14 -34 22 -18 69 12 34 29 39 53 16 19 -20 23 -19 29 5 4 16 1 19 -17 16 -40
-7 -50 7 -36 48 6 19 15 38 20 41 14 9 68 -23 73 -42 3 -12 5 -9 6 8 1 26 1
27 -102 59 -25 8 -27 7 -22 -11z"/>
<path d="M2510 1058 c-47 -32 -65 -86 -46 -132 28 -66 127 -105 163 -63 17 20
17 20 -2 12 -45 -18 -80 -17 -102 5 -28 25 -37 60 -29 104 17 87 135 111 167
34 11 -27 14 -29 20 -12 12 34 -25 62 -94 70 -33 4 -49 0 -77 -18z"/>
<path d="M5271 1445 c-13 -13 -50 -36 -82 -52 -37 -18 -58 -34 -58 -45 -1 -24
3 -23 33 7 14 14 29 25 35 25 5 0 31 -34 56 -75 34 -54 45 -80 40 -95 -6 -20
-4 -20 34 6 23 14 41 28 41 29 0 1 -10 1 -21 1 -16 -1 -33 17 -65 69 -24 38
-44 75 -44 82 0 16 51 42 69 35 10 -3 12 0 8 12 -4 10 -7 20 -7 22 0 10 -17 1
-39 -21z"/>
<path d="M5080 1332 c-29 -14 -31 -18 -14 -20 14 -2 30 -23 53 -69 17 -36 31
-67 29 -69 -2 -1 -49 18 -105 43 -74 33 -108 44 -127 39 -22 -5 -39 -28 -18
-25 4 1 13 1 20 0 16 -1 74 -126 74 -158 1 -26 16 -29 44 -8 17 13 17 14 2 15
-18 0 -53 58 -68 111 l-8 27 100 -44 c55 -25 106 -44 113 -42 9 2 -2 33 -32
96 -36 75 -42 96 -33 107 16 19 13 18 -30 -3z"/>
<path d="M4781 1203 c-52 -21 -60 -28 -44 -34 26 -9 84 -159 71 -183 -7 -13 3
-12 58 9 36 14 68 25 70 25 2 0 4 12 4 28 l-1 27 -14 -26 c-19 -35 -64 -47
-83 -22 -15 22 -27 62 -19 69 3 4 17 7 31 8 14 0 26 6 26 13 0 19 -17 24 -30
8 -22 -27 -46 -18 -58 22 -12 40 -8 48 37 59 14 4 27 2 33 -7 7 -11 8 -10 6 5
-4 28 -16 28 -87 -1z"/>
<path d="M4650 1152 c-24 -11 -30 -17 -18 -19 18 -5 26 -54 18 -118 l-5 -40
-24 25 c-12 14 -34 40 -48 58 -22 28 -24 34 -12 49 12 15 12 16 -4 10 -11 -4
-30 -10 -43 -13 -29 -7 -31 -20 -5 -29 11 -3 30 -21 44 -39 14 -18 43 -52 66
-77 38 -42 41 -43 41 -19 4 108 14 189 26 208 17 26 12 26 -36 4z"/>
<path d="M4352 1049 c-73 -29 -95 -118 -44 -177 88 -104 247 -4 188 120 -27
57 -86 81 -144 57z m76 -25 c25 -17 49 -59 56 -98 3 -18 -2 -34 -17 -51 -27
-31 -61 -39 -96 -21 -27 15 -68 80 -65 106 1 8 2 20 3 26 0 5 10 20 21 32 24
26 66 29 98 6z"/>
<path d="M4168 980 c-20 -9 -48 -20 -63 -24 -25 -6 -26 -9 -12 -24 13 -15 30
-54 67 -148 4 -11 4 -28 -1 -36 -8 -15 -6 -15 32 0 35 14 38 17 21 23 -27 10
-50 78 -31 90 8 5 22 7 32 5 12 -3 17 2 17 15 0 23 -8 23 -34 4 -29 -22 -35
-19 -52 22 -15 34 -15 38 3 51 10 7 30 12 46 9 28 -4 32 0 19 20 -5 8 -17 6
-44 -7z"/>
<path d="M2424 616 c-35 -15 -64 -68 -64 -115 0 -20 10 -42 29 -63 27 -30 35
-33 86 -33 50 0 60 4 80 28 53 61 38 154 -30 183 -42 17 -61 17 -101 0z m103
-16 c10 0 30 -62 28 -90 -5 -88 -72 -128 -130 -77 -34 29 -39 80 -15 135 20
44 39 53 85 40 16 -4 31 -8 32 -8z"/>
<path d="M4445 601 c-3 -6 -10 -45 -15 -88 -14 -106 -17 -123 -31 -140 -11
-12 -8 -13 17 -7 31 7 56 24 36 24 -7 0 -12 16 -12 42 0 23 3 39 6 36 3 -4 19
-2 35 2 25 7 32 5 44 -14 9 -13 12 -31 9 -41 -6 -15 -4 -17 17 -12 13 4 33 7
44 7 16 0 15 4 -12 28 -17 15 -52 60 -78 100 -26 39 -49 72 -51 72 -1 0 -5 -4
-9 -9z m48 -93 c3 -11 -3 -18 -20 -23 -14 -3 -27 -5 -29 -3 -1 2 0 23 3 47 l6
44 18 -24 c10 -13 20 -32 22 -41z"/>
<path d="M2671 557 c-16 -16 -14 -27 4 -21 24 9 65 -5 65 -22 0 -9 -12 -50
-27 -91 -19 -55 -32 -77 -47 -81 -17 -5 -15 -7 14 -18 52 -19 62 -18 49 4 -9
15 -8 31 6 73 37 113 56 129 99 86 22 -22 24 -22 34 -6 9 15 3 19 -51 34 -34
10 -78 26 -98 36 -27 13 -39 15 -48 6z"/>
<path d="M4234 538 l-22 -10 22 -32 c35 -53 62 -144 48 -166 -11 -18 -10 -18
36 -2 34 12 41 17 26 20 -16 2 -27 21 -49 83 -15 43 -25 88 -22 99 6 22 -6 24
-39 8z"/>
<path d="M2916 458 c3 -11 -6 -54 -22 -99 -22 -64 -31 -79 -48 -79 -19 0 -19
-1 4 -13 14 -8 35 -16 47 -19 19 -5 20 -3 11 11 -16 26 35 175 64 188 20 9 18
11 -20 20 -40 10 -42 10 -36 -9z"/>
<path d="M4050 472 c-8 -2 -28 -10 -45 -17 -16 -7 -39 -16 -50 -20 -20 -7 -20
-7 0 -15 26 -10 80 -156 69 -185 -6 -15 -4 -17 12 -11 10 5 37 15 60 23 80 27
116 94 91 166 -16 46 -84 76 -137 59z m85 -42 c16 -17 29 -44 32 -68 5 -36 2
-45 -25 -72 -18 -17 -41 -30 -56 -30 -22 0 -28 9 -55 80 -17 43 -31 84 -31 89
0 16 30 28 71 28 29 0 45 -7 64 -27z"/>
<path d="M3049 335 c-35 -47 -72 -88 -83 -91 -23 -7 -10 -17 38 -28 26 -6 28
-5 16 9 -11 13 -11 20 0 40 13 25 41 32 74 19 18 -7 22 -64 5 -81 -7 -7 2 -13
30 -21 44 -11 49 -8 28 13 -8 7 -15 37 -16 66 -2 30 -4 65 -6 79 -2 14 -4 37
-4 53 -1 15 -5 27 -10 27 -5 0 -38 -38 -72 -85z m61 0 c0 -44 -1 -45 -27 -39
-16 4 -30 8 -32 10 -4 4 47 74 55 74 2 0 4 -20 4 -45z"/>
<path d="M3883 403 c-27 -5 -27 -7 -9 -36 18 -28 36 -106 31 -132 -2 -11 -4
-23 -4 -27 -1 -4 -13 -14 -29 -22 -23 -12 -32 -12 -58 -1 -28 11 -34 22 -51
86 -14 51 -17 78 -10 87 7 9 4 11 -14 8 -13 -3 -30 -5 -38 -5 -11 -1 -11 -5 3
-20 9 -10 25 -49 35 -87 22 -76 39 -94 90 -94 76 1 106 56 83 155 -10 44 -11
65 -3 78 6 9 8 16 4 16 -5 -1 -18 -4 -30 -6z"/>
<path d="M3334 345 c-29 -29 -24 -47 32 -105 24 -26 32 -41 28 -57 -10 -36
-44 -40 -70 -9 -26 30 -34 32 -34 12 0 -20 39 -46 68 -46 26 0 72 41 72 65 0
9 -13 30 -30 46 -55 55 -62 70 -43 91 21 24 29 23 58 -8 18 -20 25 -23 25 -11
0 23 -28 47 -56 47 -14 0 -36 -11 -50 -25z"/>
<path d="M3467 350 c-6 -22 8 -37 18 -20 3 5 19 10 36 10 l29 0 0 -95 c0 -79
-3 -96 -17 -104 -14 -8 -7 -10 32 -10 42 0 47 2 33 12 -13 11 -16 30 -15 102
l2 90 33 3 c18 2 40 -2 48 -9 11 -9 14 -8 14 8 0 19 -6 20 -87 17 -48 -1 -95
2 -104 7 -13 6 -18 4 -22 -11z"/>
</g>
</svg>
